HIERARCHY
ROOT Hips
{
    OFFSET 0.000000 0.000000 0.000000
    CHANNELS 6 Xposition Yposition Zposition Zrotation Xrotation Yrotation
    JOINT Spine
    {
        OFFSET -0.000000 7.246840 0.000000
        CHANNELS 3 Zrotation Xrotation Yrotation
        JOINT Spine1
        {
            OFFSET -0.000000 20.289354 0.000000
            CHANNELS 3 Zrotation Xrotation Yrotation
            JOINT Neck
            {
                OFFSET -0.000000 20.206032 1.836912
                CHANNELS 3 Zrotation Xrotation Yrotation
                JOINT Head
                {
                    OFFSET -0.000000 12.372654 -1.767522
                    CHANNELS 3 Zrotation Xrotation Yrotation
                    End Site
                    {
                        OFFSET -0.000000 22.094025 0.000000
                    }
                }
            }
            JOINT LeftShoulder
            {
                OFFSET 3.465871 17.201674 -0.568930
                CHANNELS 3 Zrotation Xrotation Yrotation
                JOINT LeftArm
                {
                    OFFSET 14.070313 0.000000 0.000000
                    CHANNELS 3 Zrotation Xrotation Yrotation
                    JOINT LeftForeArm
                    {
                        OFFSET 26.549477 0.000000 0.000000
                        CHANNELS 3 Zrotation Xrotation Yrotation
                        JOINT LeftHand
                        {
                            OFFSET 18.880413 0.000000 0.000000
                            CHANNELS 3 Zrotation Xrotation Yrotation
                            End Site
                            {
                                OFFSET 13.256415 0.000000 0.000000
                            }
                        }
                    }
                }
            }
            JOINT RightShoulder
            {
                OFFSET -3.526370 17.201674 -0.568930
                CHANNELS 3 Zrotation Xrotation Yrotation
                JOINT RightArm
                {
                    OFFSET -14.070313 0.000000 0.000000
                    CHANNELS 3 Zrotation Xrotation Yrotation
                    JOINT RightForeArm
                    {
                        OFFSET -26.549477 0.000000 0.000000
                        CHANNELS 3 Zrotation Xrotation Yrotation
                        JOINT RightHand
                        {
                            OFFSET -18.880413 0.000000 0.000000
                            CHANNELS 3 Zrotation Xrotation Yrotation
                            End Site
                            {
                                OFFSET -13.256415 0.000000 0.000000
                            }
                        }
                    }
                }
            }
        }
    }
    JOINT LeftUpLeg
    {
        OFFSET 8.837609 0.000000 0.000000
        CHANNELS 3 Zrotation Xrotation Yrotation
        JOINT LeftLeg
        {
            OFFSET -0.000000 -41.345005 0.000000
            CHANNELS 3 Zrotation Xrotation Yrotation
            JOINT LeftFoot
            {
                OFFSET -0.000000 -35.500874 0.000000
                CHANNELS 3 Zrotation Xrotation Yrotation
                JOINT LeftToeBase
                {
                    OFFSET -0.000000 -5.744446 13.256415
                    CHANNELS 3 Zrotation Xrotation Yrotation
                    End Site
                    {
                        OFFSET -0.000000 0.000000 3.535044
                    }
                }
            }
        }
    }
    JOINT RightUpLeg
    {
        OFFSET -8.837609 0.000000 0.000000
        CHANNELS 3 Zrotation Xrotation Yrotation
        JOINT RightLeg
        {
            OFFSET -0.000000 -41.345005 0.000000
            CHANNELS 3 Zrotation Xrotation Yrotation
            JOINT RightFoot
            {
                OFFSET -0.000000 -35.500874 0.000000
                CHANNELS 3 Zrotation Xrotation Yrotation
                JOINT RightToeBase
                {
                    OFFSET -0.000000 -5.744446 13.256415
                    CHANNELS 3 Zrotation Xrotation Yrotation
                    End Site
                    {
                        OFFSET -0.000000 0.000000 3.535044
                    }
                }
            }
        }
    }
}
MOTION
Frames:    6
Frame Time:    0.010000
2.030535    82.553345    -10.564036    3.922863    -27.549633    45.512405    3.626093    5.063995    -10.001602    -8.515364    12.650001    -8.895597    -13.830431    30.590715    -8.719457    35.646717    -2.661910    -5.035646    4.441339    -0.883977    25.720387    -51.918232    60.441284    -29.747744    110.665253    -19.701326    -48.655155    64.661110    3.060181    -79.069229    -2.532023    10.697383    18.647839    -106.981094    -35.699516    -172.131958    121.270729    -43.562805    -57.201641    99.271545    44.013790    -71.112610    15.524712    13.811986    -2.029855    5.076072    32.369236    -14.593263    6.206065    -11.910105    0.071652    1.286861    -10.407310    -1.930337    -27.997929    -31.138937    -19.203125    -12.296013    75.016922    9.539690    1.131639    -3.703651    -20.070660    0.741103    -12.801125    -1.559561    
1.918575    82.529152    -10.555685    3.561270    -26.825087    44.531258    3.880267    4.917043    -10.061558    -9.092508    12.087210    -8.930219    -14.083306    30.089422    -8.332673    35.289848    -2.383664    -4.739462    4.509768    -0.864058    25.905235    -51.657413    60.273796    -29.421963    110.832146    -19.871349    -48.666119    64.674179    3.340608    -79.042038    -2.731796    10.431156    18.700081    -106.355705    -35.613384    -171.651627    120.552902    -43.809437    -57.815681    99.109932    43.459591    -70.772995    14.999551    13.500364    -1.472713    4.943058    32.038452    -14.228712    6.108267    -11.733183    0.121217    1.280229    -10.405663    -1.920367    -27.241863    -31.877037    -18.641315    -13.355558    77.254692    10.982852    0.756686    -4.272936    -20.623209    0.744956    -12.864242    -1.569111    
1.808851    82.510750    -10.544901    3.225366    -26.097256    43.584408    4.029515    4.855007    -10.153203    -9.368338    11.456667    -9.040442    -14.425224    29.546362    -8.032560    34.980198    -2.050163    -4.545284    4.480496    -0.843880    26.303404    -50.915440    60.340374    -29.604748    110.898453    -19.919371    -48.623199    64.875465    3.616426    -78.621040    -3.089114    10.363291    18.733315    -105.939240    -35.485394    -171.464233    119.574478    -44.231548    -58.648544    98.714050    43.004681    -70.375130    14.378354    13.144361    -0.899750    5.047062    31.794117    -13.977699    5.880248    -11.696542    0.139177    1.251399    -10.267524    -1.875211    -26.603716    -32.581341    -18.275135    -15.420304    79.505775    13.603312    0.430273    -4.827962    -21.049982    0.756895    -12.878634    -1.594592    
1.712729    82.501984    -10.552605    2.921214    -25.295019    42.628963    4.084973    4.620276    -10.237584    -9.513154    11.122978    -9.144271    -14.803516    28.775345    -7.762829    34.819237    -1.724555    -4.319767    4.469037    -0.996109    26.661186    -51.183159    59.842293    -29.018469    110.419807    -20.486729    -49.385433    64.979752    3.926169    -78.676750    -3.748389    10.022466    18.822128    -105.204201    -35.914700    -171.261169    119.482040    -44.042252    -58.517910    98.331810    42.515514    -69.590065    13.720368    12.794904    -0.634397    4.850418    31.481569    -13.498342    5.740333    -11.488249    0.399299    1.201077    -10.223938    -1.799233    -26.143051    -33.300907    -18.064655    -17.284672    81.459892    15.985586    0.125685    -5.220082    -21.079485    0.809861    -12.760818    -1.703238    
1.593878    82.502663    -10.564564    2.637976    -24.493746    41.662903    4.209173    4.607646    -10.299277    -9.739671    10.487350    -9.233841    -15.110647    27.924143    -7.427730    34.720352    -1.246244    -4.034322    3.326762    1.803650    28.755062    -44.001270    58.660931    -37.163483    109.688950    -19.815702    -49.678883    65.248672    3.946932    -78.234482    -4.057627    9.855809    18.768663    -104.576698    -35.827759    -171.017517    118.652420    -44.253536    -59.198135    98.166862    41.734222    -69.127319    13.070348    12.410402    -0.484862    4.570408    31.209061    -12.844041    5.730986    -11.263700    0.664171    1.145131    -10.159335    -1.714617    -25.729506    -34.009583    -17.942543    -19.871244    83.260674    19.255806    -0.086469    -5.548128    -21.217863    0.820655    -12.760228    -1.725924    
1.487302    82.520569    -10.588009    2.410399    -23.736193    40.686264    4.541271    4.498268    -10.350433    -10.481762    10.153329    -9.238213    -14.894715    27.175652    -7.244688    34.618687    -1.005710    -3.791041    4.124344    0.624573    28.218468    -46.433399    59.104435    -33.608250    109.916283    -20.500572    -49.803825    65.148430    4.300951    -78.247871    -3.819046    9.675815    18.594481    -104.245720    -35.852932    -170.881760    118.077408    -44.264351    -59.607723    98.035332    40.877678    -68.621155    12.407484    12.103239    -0.462994    4.214994    30.914946    -12.006205    5.781785    -10.949247    0.956089    1.112814    -10.114962    -1.665689    -25.356319    -34.598888    -17.856167    -24.888773    84.988274    25.065929    -0.124448    -5.976455    -21.469381    0.835048    -12.837806    -1.758176    
